<?xml version="1.0" encoding="UTF-8" standalone="no"?>
<svg
   xmlns:dc="http://purl.org/dc/elements/1.1/"
   xmlns:cc="http://creativecommons.org/ns#"
   xmlns:rdf="http://www.w3.org/1999/02/22-rdf-syntax-ns#"
   xmlns:svg="http://www.w3.org/2000/svg"
   xmlns="http://www.w3.org/2000/svg"
   xmlns:xlink="http://www.w3.org/1999/xlink"
   xmlns:sodipodi="http://sodipodi.sourceforge.net/DTD/sodipodi-0.dtd"
   xmlns:inkscape="http://www.inkscape.org/namespaces/inkscape"
   width="697"
   height="657"
   version="1.1"
   id="svg27"
   sodipodi:docname="pattern-bg.svg"
   inkscape:version="1.0.1 (3bc2e813f5, 2020-09-07)">
  <metadata
     id="metadata31">
    <rdf:RDF>
      <cc:Work
         rdf:about="">
        <dc:format>image/svg+xml</dc:format>
        <dc:type
           rdf:resource="http://purl.org/dc/dcmitype/StillImage" />
      </cc:Work>
    </rdf:RDF>
  </metadata>
  <sodipodi:namedview
     pagecolor="#ffffff"
     bordercolor="#666666"
     borderopacity="1"
     objecttolerance="10"
     gridtolerance="10"
     guidetolerance="10"
     inkscape:pageopacity="0"
     inkscape:pageshadow="2"
     inkscape:window-width="1366"
     inkscape:window-height="704"
     id="namedview29"
     showgrid="false"
     inkscape:zoom="0.77017349"
     inkscape:cx="-9.4925673"
     inkscape:cy="328.5"
     inkscape:window-x="0"
     inkscape:window-y="0"
     inkscape:window-maximized="1"
     inkscape:current-layer="svg27" />
  <defs
     id="defs7">
    <linearGradient
       inkscape:collect="always"
       id="linearGradient47">
      <stop
         style="stop-color:#f4f4fc;stop-opacity:1;"
         offset="0"
         id="stop43" />
      <stop
         style="stop-color:#f4f4fc;stop-opacity:0;"
         offset="1"
         id="stop45" />
    </linearGradient>
    <linearGradient
       id="a"
       x1="31.368%"
       x2="100%"
       y1="70.497%"
       y2="22.772%">
      <stop
         offset="0%"
         stop-color="#9975D0"
         id="stop2" />
      <stop
         offset="100%"
         stop-color="#4A3FDB"
         id="stop4" />
    </linearGradient>
    <linearGradient
       inkscape:collect="always"
       xlink:href="#linearGradient47"
       id="linearGradient49"
       x1="60.472374"
       y1="26.434792"
       x2="197.94141"
       y2="421.23727"
       gradientUnits="userSpaceOnUse" />
  </defs>
  <g
     fill="none"
     fill-rule="evenodd"
     id="g25">
    <path
       fill="url(#a)"
       d="M233.996 231.082c-62.714 60.37 48.746 169.37 176.07 259.677 127.324 90.307 187.825 151.88 269.763 73.005 81.938-78.874 114.518-247.228 0-332.682-114.518-85.453-383.12-60.369-445.833 0z"
       transform="matrix(0 1 1 0 97 -97)"
       id="path9" />
    <path
       fill="#F4F4FC"
       d="M14.885 304.531c-51.873-49.833 40.32-139.81 145.634-214.355C265.833 15.63 315.877-35.197 383.651 29.912c67.774 65.108 94.722 204.08 0 274.62-94.722 70.539-316.893 49.832-368.766 0z"
       id="path11"
       style="fill-opacity:1;fill:url(#linearGradient49)" />
    <g
       stroke="#D3629D"
       stroke-width="4"
       id="g21">
      <path
         d="M344 45.087L364.087 25l20.088 20.087L404.262 25l20.088 20.087L444.437 25"
         id="path13" />
      <path
         d="M344 63.087L364.087 43l20.088 20.087L404.262 43l20.088 20.087L444.437 43"
         id="path15" />
      <path
         d="M344 81.087L364.087 61l20.088 20.087L404.262 61l20.088 20.087L444.437 61"
         id="path17" />
      <path
         d="M344 99.087L364.087 79l20.088 20.087L404.262 79l20.088 20.087L444.437 79"
         id="path19" />
    </g>
    <path
       fill="#CF6BCB"
       d="M667 640a3 3 0 110 6 3 3 0 010-6zm-22 0a3 3 0 110 6 3 3 0 010-6zm-22 0a3 3 0 110 6 3 3 0 010-6zm-22 0a3 3 0 110 6 3 3 0 010-6zm-22 0a3 3 0 110 6 3 3 0 010-6zm-22 0a3 3 0 110 6 3 3 0 010-6zm-22 0a3 3 0 110 6 3 3 0 010-6zm-22 0a3 3 0 110 6 3 3 0 010-6zm-22 0a3 3 0 110 6 3 3 0 010-6zm0-22a3 3 0 110 6 3 3 0 010-6zm176 0a3 3 0 110 6 3 3 0 010-6zm-22 0a3 3 0 110 6 3 3 0 010-6zm-22 0a3 3 0 110 6 3 3 0 010-6zm-22 0a3 3 0 110 6 3 3 0 010-6zm-22 0a3 3 0 110 6 3 3 0 010-6zm-22 0a3 3 0 110 6 3 3 0 010-6zm-22 0a3 3 0 110 6 3 3 0 010-6zm-22 0a3 3 0 110 6 3 3 0 010-6zm0-22a3 3 0 110 6 3 3 0 010-6zm22 0a3 3 0 110 6 3 3 0 010-6zm22 0a3 3 0 110 6 3 3 0 010-6zm22 0a3 3 0 110 6 3 3 0 010-6zm22 0a3 3 0 110 6 3 3 0 010-6zm22 0a3 3 0 110 6 3 3 0 010-6zm22 0a3 3 0 110 6 3 3 0 010-6zm22 0a3 3 0 110 6 3 3 0 010-6zm-176 0a3 3 0 110 6 3 3 0 010-6zm22-22a3 3 0 110 6 3 3 0 010-6zm22 0a3 3 0 110 6 3 3 0 010-6zm22 0a3 3 0 110 6 3 3 0 010-6zm22 0a3 3 0 110 6 3 3 0 010-6zm22 0a3 3 0 110 6 3 3 0 010-6zm22 0a3 3 0 110 6 3 3 0 010-6zm22 0a3 3 0 110 6 3 3 0 010-6zm22 0a3 3 0 110 6 3 3 0 010-6zm-176 0a3 3 0 110 6 3 3 0 010-6z"
       id="path23" />
  </g>
</svg>
